<svg width="510" height="272" viewBox="0 0 510 272" fill="none" xmlns="http://www.w3.org/2000/svg">
<g clip-path="url(#clip0_5152_22049)">
<path d="M0 12C0 5.37258 5.37258 0 12 0H498C504.627 0 510 5.37258 510 12V260C510 266.627 504.627 272 498 272H12C5.37258 272 0 266.627 0 260V12Z" fill="#FFCF54"/>
<g filter="url(#filter0_d_5152_22049)">
<path d="M400.493 38.4844H130.028C122.807 38.4844 116.953 44.3384 116.953 51.5597V217.93C116.953 225.151 122.807 231.005 130.028 231.005H400.493C407.714 231.005 413.568 225.151 413.568 217.93V51.5597C413.568 44.3384 407.714 38.4844 400.493 38.4844Z" fill="#EFEEFF"/>
<g filter="url(#filter1_d_5152_22049)">
<path d="M371.258 69.8594H159.263C153.227 69.8594 148.334 74.7525 148.334 80.7885V188.689C148.334 194.725 153.227 199.618 159.263 199.618H371.258C377.294 199.618 382.187 194.725 382.187 188.689V80.7885C382.187 74.7525 377.294 69.8594 371.258 69.8594Z" fill="#CDCCFF"/>
<path d="M253.338 82.9766H168.454C164.585 82.9766 161.449 86.1127 161.449 89.9813V179.501C161.449 183.369 164.585 186.506 168.454 186.506H253.338C257.206 186.506 260.343 183.369 260.343 179.501V89.9813C260.343 86.1127 257.206 82.9766 253.338 82.9766Z" fill="#9B98FF"/>
<path d="M362.069 82.9766H277.185C273.316 82.9766 270.18 86.1127 270.18 89.9813V179.501C270.18 183.369 273.316 186.506 277.185 186.506H362.069C365.937 186.506 369.074 183.369 369.074 179.501V89.9813C369.074 86.1127 365.937 82.9766 362.069 82.9766Z" fill="#9B98FF"/>
<path d="M371.258 70.1484H159.263C153.385 70.1484 148.621 74.9129 148.621 80.7902V188.692C148.621 194.569 153.385 199.333 159.263 199.333H371.258C377.136 199.333 381.9 194.569 381.9 188.692V80.7902C381.9 74.9129 377.136 70.1484 371.258 70.1484Z" stroke="#CDCCFF" stroke-width="0.574578"/>
</g>
<path d="M400.492 38.7734H130.028C122.965 38.7734 117.24 44.4988 117.24 51.5614V217.931C117.24 224.994 122.965 230.719 130.028 230.719H400.492C407.555 230.719 413.28 224.994 413.28 217.931V51.5614C413.28 44.4988 407.555 38.7734 400.492 38.7734Z" stroke="#ECECEE" stroke-width="0.574578"/>
</g>
<path d="M211 135H235C235 138.152 234.379 141.273 233.173 144.184C231.967 147.096 230.199 149.742 227.971 151.971C225.742 154.199 223.096 155.967 220.184 157.173C217.273 158.379 214.152 159 211 159V135Z" fill="#5854FF"/>
<path d="M211 111H187V135C187 141.365 189.529 147.47 194.029 151.971C198.53 156.471 204.635 159 211 159V111Z" fill="#FF3666"/>
<path d="M223 135C229.627 135 235 129.627 235 123C235 116.373 229.627 111 223 111C216.373 111 211 116.373 211 123C211 129.627 216.373 135 223 135Z" fill="#FFC329"/>
<path d="M321.289 136.289V158.999C333.521 158.359 343.359 148.521 343.999 136.289H321.289Z" fill="white"/>
<path d="M318.744 159V111H296V135.016C296 147.832 306.09 158.336 318.744 159Z" fill="white"/>
<path d="M332.628 111C330.379 111 328.18 111.666 326.309 112.916C324.439 114.166 322.981 115.942 322.12 118.02C321.259 120.098 321.034 122.385 321.472 124.591C321.911 126.797 322.994 128.824 324.585 130.415C326.176 132.005 328.202 133.088 330.408 133.527C332.615 133.966 334.901 133.741 336.98 132.88C339.058 132.019 340.834 130.561 342.084 128.69C343.333 126.82 344 124.621 344 122.371C343.996 119.357 342.796 116.466 340.665 114.335C338.533 112.203 335.643 111.004 332.628 111Z" fill="white"/>
<path fill-rule="evenodd" clip-rule="evenodd" d="M373 93.4016C377.88 93.4016 382.56 91.463 386.01 88.0123C389.461 84.5617 391.4 79.8815 391.4 75.0016C391.4 70.1216 389.461 65.4415 386.01 61.9908C382.56 58.5401 377.88 56.6016 373 56.6016C368.12 56.6016 363.44 58.5401 359.989 61.9908C356.538 65.4415 354.6 70.1216 354.6 75.0016C354.6 79.8815 356.538 84.5617 359.989 88.0123C363.44 91.463 368.12 93.4016 373 93.4016Z" fill="#6FCF97"/>
<path d="M382.172 70.4128C382.177 71.0159 381.945 71.5969 381.526 72.0306L372.326 81.2306C371.895 81.6618 371.31 81.9041 370.7 81.9041C370.09 81.9041 369.505 81.6618 369.074 81.2306L364.474 76.6306C364.055 76.1969 363.823 75.6159 363.828 75.0128C363.833 74.4098 364.075 73.8329 364.502 73.4065C364.928 72.98 365.505 72.7381 366.108 72.7329C366.711 72.7277 367.292 72.9595 367.726 73.3784L370.7 76.3523L378.274 68.7784C378.708 68.3595 379.289 68.1277 379.892 68.1329C380.495 68.1381 381.072 68.38 381.498 68.8065C381.924 69.2329 382.166 69.8098 382.172 70.4128Z" fill="white"/>
</g>
<defs>
<filter id="filter0_d_5152_22049" x="106.245" y="30.6322" width="318.03" height="213.939" filterUnits="userSpaceOnUse" color-interpolation-filters="sRGB">
<feFlood flood-opacity="0" result="BackgroundImageFix"/>
<feColorMatrix in="SourceAlpha" type="matrix" values="0 0 0 0 0 0 0 0 0 0 0 0 0 0 0 0 0 0 127 0" result="hardAlpha"/>
<feOffset dy="2.85534"/>
<feGaussianBlur stdDeviation="5.35377"/>
<feColorMatrix type="matrix" values="0 0 0 0 0.290196 0 0 0 0 0.290196 0 0 0 0 0.34902 0 0 0 0.2 0"/>
<feBlend mode="normal" in2="BackgroundImageFix" result="effect1_dropShadow_5152_22049"/>
<feBlend mode="normal" in="SourceGraphic" in2="effect1_dropShadow_5152_22049" result="shape"/>
</filter>
<filter id="filter1_d_5152_22049" x="138.334" y="60.8594" width="253.854" height="149.758" filterUnits="userSpaceOnUse" color-interpolation-filters="sRGB">
<feFlood flood-opacity="0" result="BackgroundImageFix"/>
<feColorMatrix in="SourceAlpha" type="matrix" values="0 0 0 0 0 0 0 0 0 0 0 0 0 0 0 0 0 0 127 0" result="hardAlpha"/>
<feOffset dy="1"/>
<feGaussianBlur stdDeviation="5"/>
<feColorMatrix type="matrix" values="0 0 0 0 0.290196 0 0 0 0 0.290196 0 0 0 0 0.34902 0 0 0 0.2 0"/>
<feBlend mode="normal" in2="BackgroundImageFix" result="effect1_dropShadow_5152_22049"/>
<feBlend mode="normal" in="SourceGraphic" in2="effect1_dropShadow_5152_22049" result="shape"/>
</filter>
<clipPath id="clip0_5152_22049">
<rect width="510" height="272" fill="white"/>
</clipPath>
</defs>
</svg>
